<svg width="160" height="24" viewBox="0 0 160 24" fill="none" xmlns="http://www.w3.org/2000/svg">
<g clip-path="url(#clip0_7_987)">
<path d="M131.171 0.80835H138.177L160 23.0719H155.832C154.033 23.0893 152.885 22.5075 151.487 21.3189L145.373 15.1763L137.723 23.1918H131.171L141.658 11.5805L131.171 0.80835Z" fill="#576BB8"/>
<path d="M150.406 9.51419L158.194 0.80835H151.897L149.673 3.14814C148.843 4.02146 148.419 5.22669 148.547 6.43844C148.674 7.63757 149.308 8.65791 150.406 9.51419H150.406Z" fill="#576BB8"/>
<path d="M26.7938 1.23853V22.7316H18.2559V14.7792H8.53836V22.7316H0.000732422V1.23853H8.53857V8.63818H18.2561V1.23853H26.794H26.7938Z" fill="white"/>
<path d="M108.818 1.23853V22.7316H104.254L91.1834 5.75214V22.7316H87.3336V1.23853H91.8976L104.999 18.218V1.23853H108.818Z" fill="white"/>
<path d="M135.114 11.9848C135.114 19.4152 129.37 23.192 122.602 23.192C115.834 23.192 110.059 19.4154 110.059 11.9848C110.059 4.55427 115.803 0.808594 122.602 0.808594C129.401 0.808594 135.114 4.55448 135.114 11.9848ZM131.171 11.9848C131.171 7.22576 128.097 3.97101 122.602 3.97101C117.107 3.97101 114.002 7.22576 114.002 11.9848C114.002 16.7439 117.076 20.0294 122.602 20.0294C128.128 20.0294 131.171 16.7746 131.171 11.9848Z" fill="white"/>
<path d="M52.6148 20.8789C50.2233 22.4213 46.8249 23.192 42.4189 23.192C38.0128 23.192 34.6068 22.4211 32.202 20.8789C29.7974 19.3365 28.5952 17.0962 28.5952 14.1574V1.30811H37.5015V14.0634C37.5015 15.2722 37.918 16.2359 38.7507 16.9551C39.5834 17.6742 40.7928 18.0339 42.3782 18.0339C43.9637 18.0339 45.179 17.6694 46.0252 16.9397C46.8715 16.2101 47.2949 15.2515 47.2949 14.0634V1.30811H56.2012V14.1572C56.2012 17.096 55.0054 19.3363 52.6143 20.8787L52.6148 20.8789Z" fill="white"/>
<path d="M79.366 1.97761C80.4789 2.42394 81.362 3.05201 82.0147 3.86138C82.6672 4.67118 82.9941 5.57395 82.9941 6.57031C82.9941 9.20689 81.5224 10.8677 78.5793 11.5526V11.6773C81.9318 12.3001 83.6081 14.0852 83.6081 17.0331C83.6081 18.1542 83.2689 19.1455 82.5909 20.0073C81.9124 20.8688 80.9849 21.5383 79.8075 22.0158C78.6301 22.4932 77.3381 22.7318 75.9306 22.7318H58.119V1.30811H75.7C77.0306 1.30811 78.2524 1.53148 79.366 1.9774V1.97761ZM66.6022 9.65343H72.4373C73 9.65343 73.4671 9.49273 73.8382 9.17071C74.2093 8.84889 74.395 8.44946 74.395 7.972V7.66049C74.395 7.20406 74.203 6.81472 73.8193 6.49291C73.4352 6.17109 72.9747 6.01019 72.4373 6.01019H66.6022V9.65364V9.65343ZM66.6022 17.7493H73.0513C73.6141 17.7493 74.0811 17.5886 74.4522 17.2668C74.8234 16.945 75.009 16.5453 75.009 16.0677V15.7564C75.009 15.2789 74.8234 14.8795 74.4522 14.5576C74.0811 14.2358 73.6141 14.0749 73.0513 14.0749H66.6022V17.7491V17.7493Z" fill="white"/>
</g>
<defs>
<clipPath id="clip0_7_987">
<rect width="160" height="22.3834" fill="white" transform="translate(0 0.80835)"/>
</clipPath>
</defs>
</svg>
