<svg width="40" height="40" viewBox="0 0 40 40" fill="none" xmlns="http://www.w3.org/2000/svg">
<path opacity="0.7" d="M23.3333 26.6667C23.3333 29.6167 22.05 32.2834 20 34.1001C18.2333 35.7001 15.9 36.6667 13.3333 36.6667C7.81666 36.6667 3.33333 32.1834 3.33333 26.6667C3.33333 22.0667 6.46666 18.1667 10.7 17.0167C11.85 19.9167 14.3167 22.1501 17.3667 22.9834C18.2 23.2167 19.0833 23.3334 20 23.3334C20.9167 23.3334 21.8 23.2167 22.6333 22.9834C23.0833 24.1167 23.3333 25.3667 23.3333 26.6667Z" fill="#EE46BC"/>
<path d="M30 13.3334C30 14.6334 29.75 15.8834 29.3 17.0167C28.15 19.9167 25.6833 22.15 22.6333 22.9834C21.8 23.2167 20.9167 23.3334 20 23.3334C19.0833 23.3334 18.2 23.2167 17.3667 22.9834C14.3167 22.15 11.85 19.9167 10.7 17.0167C10.25 15.8834 10 14.6334 10 13.3334C10 7.81671 14.4833 3.33337 20 3.33337C25.5167 3.33337 30 7.81671 30 13.3334Z" fill="#3C5BFF"/>
<path d="M36.6667 26.6667C36.6667 32.1834 32.1833 36.6667 26.6667 36.6667C24.1 36.6667 21.7667 35.7001 20 34.1001C22.05 32.2834 23.3333 29.6167 23.3333 26.6667C23.3333 25.3667 23.0833 24.1167 22.6333 22.9834C25.6833 22.1501 28.15 19.9167 29.3 17.0167C33.5333 18.1667 36.6667 22.0667 36.6667 26.6667Z" fill="white"/>
</svg>
