<svg width="40" height="41" viewBox="0 0 40 41" fill="none" xmlns="http://www.w3.org/2000/svg">
<path d="M33.75 0.69165H6.25C2.79822 0.69165 0 3.48987 0 6.94165V34.4417C0 37.8934 2.79822 40.6917 6.25 40.6917H33.75C37.2018 40.6917 40 37.8934 40 34.4417V6.94165C40 3.48987 37.2018 0.69165 33.75 0.69165Z" fill="#1877F2"/>
<path d="M30 20.6917C30 15.1917 25.5 10.6917 20 10.6917C14.5 10.6917 10 15.1917 10 20.6917C10 25.6917 13.625 29.8167 18.375 30.5667V23.5666H15.875V20.6917H18.375V18.4417C18.375 15.9417 19.875 14.5667 22.125 14.5667C23.25 14.5667 24.375 14.8167 24.375 14.8167V17.3167H23.125C21.875 17.3167 21.5 18.0667 21.5 18.8167V20.6917H24.25L23.75 23.5666H21.375V30.6917C26.375 29.9417 30 25.6917 30 20.6917Z" fill="white"/>
</svg>
