<svg width="40" height="41" viewBox="0 0 40 41" fill="none" xmlns="http://www.w3.org/2000/svg">
<path d="M0 6.94165C0 3.48987 2.79822 0.69165 6.25 0.69165H33.75C37.2018 0.69165 40 3.48987 40 6.94165V34.4417C40 37.8934 37.2018 40.6917 33.75 40.6917H6.25C2.79822 40.6917 0 37.8934 0 34.4417V6.94165Z" fill="#1157FF"/>
<path d="M15.8172 14.4417C16.3944 14.4417 16.9273 14.4861 17.4158 14.6193C17.9042 14.7081 18.3039 14.8857 18.6591 15.1077C19.0144 15.3298 19.2808 15.6406 19.4584 16.0403C19.636 16.4399 19.7249 16.9284 19.7249 17.4612C19.7249 18.0829 19.5916 18.6158 19.2808 19.0154C19.0144 19.4151 18.5703 19.7703 18.0374 20.0368C18.7923 20.2588 19.3696 20.6585 19.7249 21.1913C20.0801 21.7242 20.3021 22.3903 20.3021 23.1452C20.3021 23.7669 20.1689 24.2997 19.9469 24.7438C19.7249 25.1878 19.3696 25.5875 18.97 25.8539C18.5703 26.1204 18.0818 26.3424 17.549 26.4756C17.0161 26.6088 16.4832 26.6976 15.9504 26.6976H10V14.4417H15.8172ZM15.4619 19.4151C15.9504 19.4151 16.35 19.2819 16.6609 19.0598C16.9717 18.8378 17.1049 18.4382 17.1049 17.9497C17.1049 17.6833 17.0605 17.4168 16.9717 17.2392C16.8829 17.0616 16.7497 16.9284 16.572 16.7952C16.3944 16.7063 16.2168 16.6175 15.9948 16.5731C15.7727 16.5287 15.5507 16.5287 15.2843 16.5287H12.7087V19.4151H15.4619ZM15.5951 24.655C15.8616 24.655 16.128 24.6106 16.35 24.5662C16.572 24.5218 16.7941 24.4329 16.9717 24.2997C17.1493 24.1665 17.2825 24.0333 17.4158 23.8113C17.5046 23.5892 17.5934 23.3228 17.5934 23.012C17.5934 22.3903 17.4158 21.9462 17.0605 21.6354C16.7053 21.3689 16.2168 21.2357 15.6395 21.2357H12.7087V24.655H15.5951ZM24.1654 24.6106C24.5207 24.9658 25.0535 25.1434 25.764 25.1434C26.2525 25.1434 26.6966 25.0102 27.0518 24.7882C27.407 24.5218 27.6291 24.2553 27.7179 23.9889H29.8938C29.5385 25.0546 29.0057 25.8095 28.2952 26.298C27.5847 26.742 26.741 27.0085 25.7196 27.0085C25.0091 27.0085 24.3875 26.8753 23.8102 26.6532C23.2329 26.4312 22.7889 26.1204 22.3892 25.6763C21.9895 25.2766 21.6787 24.7882 21.5011 24.2109C21.2791 23.6336 21.1902 23.012 21.1902 22.3015C21.1902 21.6354 21.2791 21.0137 21.5011 20.4364C21.7231 19.8591 22.034 19.3707 22.4336 18.9266C22.8333 18.527 23.3217 18.1717 23.8546 17.9497C24.4319 17.7277 25.0091 17.5945 25.7196 17.5945C26.4745 17.5945 27.1406 17.7277 27.7179 18.0385C28.2952 18.3494 28.7392 18.7046 29.0945 19.2375C29.4497 19.7259 29.7161 20.3032 29.8938 20.9249C29.9826 21.5466 30.027 22.1682 29.9826 22.8787H23.5437C23.5437 23.5892 23.8102 24.2553 24.1654 24.6106ZM26.963 19.948C26.6521 19.6371 26.1637 19.4595 25.5864 19.4595C25.1868 19.4595 24.8759 19.5483 24.6095 19.6815C24.3431 19.8147 24.1654 19.9924 23.9878 20.17C23.8102 20.3476 23.7214 20.5696 23.677 20.7917C23.6326 21.0137 23.5882 21.1913 23.5882 21.3689H27.5847C27.4959 20.7029 27.2738 20.2588 26.963 19.948ZM23.0553 15.2854H28.0287V16.4843H23.0553V15.2854Z" fill="white"/>
</svg>
