<svg width="40" height="41" viewBox="0 0 40 41" fill="none" xmlns="http://www.w3.org/2000/svg">
<path d="M33.75 0.69165H6.25C2.79822 0.69165 0 3.48987 0 6.94165V34.4417C0 37.8934 2.79822 40.6917 6.25 40.6917H33.75C37.2018 40.6917 40 37.8934 40 34.4417V6.94165C40 3.48987 37.2018 0.69165 33.75 0.69165Z" fill="#2867B2"/>
<path d="M14.5 30.6917H10.25V17.3167H14.5V30.6917ZM12.375 15.4417C11 15.4417 10 14.4416 10 13.0666C10 11.6916 11.125 10.6917 12.375 10.6917C13.75 10.6917 14.75 11.6916 14.75 13.0666C14.75 14.4416 13.75 15.4417 12.375 15.4417ZM30 30.6917H25.75V23.4417C25.75 21.3167 24.875 20.6917 23.625 20.6917C22.375 20.6917 21.125 21.6916 21.125 23.5666V30.6917H16.875V17.3167H20.875V19.1917C21.25 18.3167 22.75 16.9417 24.875 16.9417C27.25 16.9417 29.75 18.3166 29.75 22.4417V30.6917H30Z" fill="white"/>
</svg>
