<svg width="40" height="40" viewBox="0 0 40 40" fill="none" xmlns="http://www.w3.org/2000/svg">
<path d="M33.9333 21.2167C33.3167 21.2167 32.8 20.75 32.7333 20.1333C32.3333 16.4667 30.3667 13.1667 27.3333 11.0667C26.7833 10.6833 26.65 9.93333 27.0333 9.38333C27.4167 8.83333 28.1667 8.7 28.7167 9.08333C32.3333 11.6 34.6667 15.5333 35.15 19.8833C35.2167 20.55 34.7333 21.15 34.0667 21.2167C34.0167 21.2167 33.9833 21.2167 33.9333 21.2167Z" fill="#D0D5DD"/>
<path d="M6.23334 21.3C6.2 21.3 6.15 21.3 6.11667 21.3C5.45 21.2333 4.96667 20.6333 5.03334 19.9666C5.48334 15.6166 7.78334 11.6833 11.3667 9.14997C11.9 8.76664 12.6667 8.89997 13.05 9.4333C13.4333 9.9833 13.3 10.7333 12.7667 11.1166C9.76667 13.25 7.81667 16.55 7.45 20.2C7.38334 20.8333 6.85 21.3 6.23334 21.3Z" fill="#D0D5DD"/>
<path d="M26.65 35.1667C24.6 36.15 22.4 36.65 20.1 36.65C17.7 36.65 15.4167 36.1167 13.2833 35.0333C12.6833 34.75 12.45 34.0167 12.75 33.4167C13.0333 32.8167 13.7667 32.5833 14.3667 32.8667C15.4167 33.4 16.5333 33.7667 17.6667 33.9833C19.2 34.2833 20.7667 34.3 22.3 34.0333C23.4333 33.8333 24.55 33.4833 25.5833 32.9833C26.2 32.7 26.9333 32.9333 27.2 33.55C27.5 34.15 27.2667 34.8833 26.65 35.1667Z" fill="#D0D5DD"/>
<path d="M20.0833 3.34998C17.5 3.34998 15.3833 5.44998 15.3833 8.04998C15.3833 10.65 17.4833 12.75 20.0833 12.75C22.6833 12.75 24.7833 10.65 24.7833 8.04998C24.7833 5.44998 22.6833 3.34998 20.0833 3.34998Z" fill="#3C5BFF"/>
<path d="M8.41668 23.1167C5.83334 23.1167 3.71667 25.2167 3.71667 27.8167C3.71667 30.4167 5.81668 32.5167 8.41668 32.5167C11.0167 32.5167 13.1167 30.4167 13.1167 27.8167C13.1167 25.2167 11 23.1167 8.41668 23.1167Z" fill="#EE46BC"/>
<path d="M31.5833 23.1167C29 23.1167 26.8833 25.2167 26.8833 27.8167C26.8833 30.4167 28.9833 32.5167 31.5833 32.5167C34.1833 32.5167 36.2833 30.4167 36.2833 27.8167C36.2833 25.2167 34.1833 23.1167 31.5833 23.1167Z" fill="white"/>
</svg>
