<svg width="44" height="45" viewBox="0 0 44 45" fill="none" xmlns="http://www.w3.org/2000/svg">
<rect x="2.75" y="3.44165" width="38.5" height="38.5" rx="6" fill="url(#paint0_radial_2001_1136)"/>
<rect x="2.75" y="3.44165" width="38.5" height="38.5" rx="6" fill="url(#paint1_radial_2001_1136)"/>
<path d="M31.625 15.1292C31.625 16.2682 30.7016 17.1917 29.5625 17.1917C28.4234 17.1917 27.5 16.2682 27.5 15.1292C27.5 13.9901 28.4234 13.0667 29.5625 13.0667C30.7016 13.0667 31.625 13.9901 31.625 15.1292Z" fill="white"/>
<path fill-rule="evenodd" clip-rule="evenodd" d="M22 29.5667C25.797 29.5667 28.875 26.4886 28.875 22.6917C28.875 18.8947 25.797 15.8167 22 15.8167C18.203 15.8167 15.125 18.8947 15.125 22.6917C15.125 26.4886 18.203 29.5667 22 29.5667ZM22 26.8167C24.2782 26.8167 26.125 24.9698 26.125 22.6917C26.125 20.4135 24.2782 18.5667 22 18.5667C19.7218 18.5667 17.875 20.4135 17.875 22.6917C17.875 24.9698 19.7218 26.8167 22 26.8167Z" fill="white"/>
<path fill-rule="evenodd" clip-rule="evenodd" d="M8.25 22.1417C8.25 17.5212 8.25 15.211 9.1492 13.4462C9.94015 11.8939 11.2022 10.6318 12.7546 9.84085C14.5194 8.94165 16.8296 8.94165 21.45 8.94165H22.55C27.1704 8.94165 29.4806 8.94165 31.2454 9.84085C32.7978 10.6318 34.0598 11.8939 34.8508 13.4462C35.75 15.211 35.75 17.5212 35.75 22.1417V23.2416C35.75 27.8621 35.75 30.1723 34.8508 31.9371C34.0598 33.4894 32.7978 34.7515 31.2454 35.5425C29.4806 36.4417 27.1704 36.4417 22.55 36.4417H21.45C16.8296 36.4417 14.5194 36.4417 12.7546 35.5425C11.2022 34.7515 9.94015 33.4894 9.1492 31.9371C8.25 30.1723 8.25 27.8621 8.25 23.2416V22.1417ZM21.45 11.6917H22.55C24.9056 11.6917 26.5069 11.6938 27.7446 11.7949C28.9503 11.8934 29.5668 12.072 29.9969 12.2911C31.0318 12.8184 31.8732 13.6598 32.4005 14.6947C32.6197 15.1248 32.7982 15.7414 32.8967 16.947C32.9979 18.1847 33 19.7861 33 22.1417V23.2416C33 25.5972 32.9979 27.1985 32.8967 28.4363C32.7982 29.6419 32.6197 30.2585 32.4005 30.6886C31.8732 31.7235 31.0318 32.5649 29.9969 33.0922C29.5668 33.3113 28.9503 33.4899 27.7446 33.5884C26.5069 33.6895 24.9056 33.6917 22.55 33.6917H21.45C19.0944 33.6917 17.4931 33.6895 16.2554 33.5884C15.0497 33.4899 14.4332 33.3113 14.0031 33.0922C12.9682 32.5649 12.1268 31.7235 11.5995 30.6886C11.3803 30.2585 11.2018 29.6419 11.1033 28.4363C11.0021 27.1985 11 25.5972 11 23.2416V22.1417C11 19.7861 11.0021 18.1847 11.1033 16.947C11.2018 15.7414 11.3803 15.1248 11.5995 14.6947C12.1268 13.6598 12.9682 12.8184 14.0031 12.2911C14.4332 12.072 15.0497 11.8934 16.2554 11.7949C17.4931 11.6938 19.0944 11.6917 21.45 11.6917Z" fill="white"/>
<defs>
<radialGradient id="paint0_radial_2001_1136" cx="0" cy="0" r="1" gradientUnits="userSpaceOnUse" gradientTransform="translate(16.5 32.3167) rotate(-55.3758) scale(35.0895)">
<stop stop-color="#B13589"/>
<stop offset="0.79309" stop-color="#C62F94"/>
<stop offset="1" stop-color="#8A3AC8"/>
</radialGradient>
<radialGradient id="paint1_radial_2001_1136" cx="0" cy="0" r="1" gradientUnits="userSpaceOnUse" gradientTransform="translate(15.125 43.3166) rotate(-65.1363) scale(31.0671)">
<stop stop-color="#E0E8B7"/>
<stop offset="0.444662" stop-color="#FB8A2E"/>
<stop offset="0.71474" stop-color="#E2425C"/>
<stop offset="1" stop-color="#E2425C" stop-opacity="0"/>
</radialGradient>
</defs>
</svg>
