<svg width="40" height="40" viewBox="0 0 40 40" fill="none" xmlns="http://www.w3.org/2000/svg">
<path opacity="0.7" d="M29.2167 12.95C29.1 12.9334 28.9833 12.9334 28.8667 12.95C26.2833 12.8667 24.2333 10.75 24.2333 8.15004C24.2333 5.50004 26.3833 3.33337 29.05 3.33337C31.7 3.33337 33.8667 5.48337 33.8667 8.15004C33.85 10.75 31.8 12.8667 29.2167 12.95Z" fill="#EE46BC"/>
<path opacity="0.7" d="M34.65 24.5C32.7834 25.75 30.1667 26.2167 27.75 25.9C28.3834 24.5334 28.7167 23.0167 28.7334 21.4167C28.7334 19.7501 28.3667 18.1667 27.6667 16.7834C30.1334 16.4501 32.75 16.9167 34.6334 18.1667C37.2667 19.9 37.2667 22.75 34.65 24.5Z" fill="#EE46BC"/>
<path d="M10.7333 12.95C10.85 12.9334 10.9666 12.9334 11.0833 12.95C13.6666 12.8667 15.7166 10.75 15.7166 8.15004C15.7166 5.50004 13.5666 3.33337 10.9 3.33337C8.24998 3.33337 6.08331 5.48337 6.08331 8.15004C6.09998 10.75 8.14997 12.8667 10.7333 12.95Z" fill="#3C5BFF"/>
<path d="M10.9167 21.4167C10.9167 23.0334 11.2667 24.5667 11.9 25.95C9.55001 26.2 7.10001 25.7 5.30001 24.5167C2.66668 22.7667 2.66668 19.9167 5.30001 18.1667C7.08335 16.9667 9.60001 16.4833 11.9667 16.75C11.2833 18.15 10.9167 19.7334 10.9167 21.4167Z" fill="#3C5BFF"/>
<path d="M20.2 26.45C20.0667 26.4333 19.9167 26.4333 19.7667 26.45C16.7 26.35 14.25 23.8333 14.25 20.7333C14.25 17.5667 16.8 15 19.9833 15C23.15 15 25.7167 17.5667 25.7167 20.7333C25.7167 23.8333 23.2833 26.35 20.2 26.45Z" fill="#F2F4F7"/>
<path d="M14.7833 29.9C12.2666 31.5834 12.2666 34.35 14.7833 36.0167C17.65 37.9334 22.35 37.9334 25.2167 36.0167C27.7333 34.3334 27.7333 31.5667 25.2167 29.9C22.3667 27.9834 17.6666 27.9834 14.7833 29.9Z" fill="#F2F4F7"/>
</svg>
