<svg width="40" height="41" viewBox="0 0 40 41" fill="none" xmlns="http://www.w3.org/2000/svg">
<path d="M0 6.94165C0 3.48987 2.79822 0.69165 6.25 0.69165H33.75C37.2018 0.69165 40 3.48987 40 6.94165V34.4417C40 37.8934 37.2018 40.6917 33.75 40.6917H6.25C2.79822 40.6917 0 37.8934 0 34.4417V6.94165Z" fill="black"/>
<path d="M21.9027 19.1603L29.3482 10.6917H27.5838L21.119 18.0448L15.9555 10.6917H10L17.8082 21.811L10 30.6917H11.7644L18.5915 22.9264L24.0445 30.6917H30L21.9023 19.1603H21.9027ZM19.4861 21.909L18.695 20.8017L12.4002 11.9913H15.1102L20.1902 19.1016L20.9813 20.2088L27.5847 29.4511H24.8746L19.4861 21.9094V21.909Z" fill="white"/>
</svg>
